<?xml version="1.0" encoding="utf-8" ?>
<svg baseProfile="full" height="100%" version="1.1" width="100%" xmlns="http://www.w3.org/2000/svg" xmlns:ev="http://www.w3.org/2001/xml-events" xmlns:xlink="http://www.w3.org/1999/xlink"><defs><marker id="id7" markerHeight="10" markerWidth="10" refX="5" refY="5"><polygon points="0,0 0,10 5,5" /></marker><marker id="id8" markerHeight="10" markerWidth="10" refX="5" refY="5"><polygon points="0,0 10,0 5,5" /></marker><marker id="id9" markerHeight="10" markerWidth="10" refX="5" refY="5"><polygon points="0,10 10,10 5,5" /></marker></defs><g font-size="0.005em"><text x="0" y="400"><tspan fill="red" font-size="150em" size="dimension(width=200, height=100)" x="200" y="500">Search</tspan><tspan fill="red" font-size="150em" size="dimension(width=200, height=100)" x="200" y="520">requirements</tspan><tspan fill="red" font-size="150em" size="dimension(width=200, height=100)" x="200" y="540">in</tspan><tspan fill="red" font-size="150em" size="dimension(width=200, height=100)" x="200" y="560">law</tspan></text></g><g font-size="0.005em" /><g font-size="0.005em"><text x="1000" y="400"><tspan fill="red" font-size="150em" size="dimension(width=200, height=100)" x="200" y="500">Resolve</tspan><tspan fill="red" font-size="150em" size="dimension(width=200, height=100)" x="200" y="520">requirements</tspan><tspan fill="red" font-size="150em" size="dimension(width=200, height=100)" x="200" y="540">conflicts</tspan></text></g><rect fill="none" height="100" rx="5" ry="5" stroke="black" width="200" x="0" y="400" /><rect fill="none" height="100" rx="5" ry="5" stroke="black" width="200" x="500" y="400" /><rect fill="none" height="100" rx="5" ry="5" stroke="black" width="200" x="1000" y="400" /><g font-size="0.005em"><text x="0" y="400"><tspan fill="red" font-size="150em" size="dimension(width=200, height=100)" x="200" y="500">Search</tspan><tspan fill="red" font-size="150em" size="dimension(width=200, height=100)" x="200" y="520">requirements</tspan><tspan fill="red" font-size="150em" size="dimension(width=200, height=100)" x="200" y="540">in</tspan><tspan fill="red" font-size="150em" size="dimension(width=200, height=100)" x="200" y="560">law</tspan></text></g><text x="500" y="400">Compare requirements</text><g font-size="0.005em"><text x="1000" y="400"><tspan fill="red" font-size="150em" size="dimension(width=200, height=100)" x="200" y="500">Resolve</tspan><tspan fill="red" font-size="150em" size="dimension(width=200, height=100)" x="200" y="520">requirements</tspan><tspan fill="red" font-size="150em" size="dimension(width=200, height=100)" x="200" y="540">conflicts</tspan></text></g></svg>