<?xml version="1.0" encoding="utf-8" ?>
<svg baseProfile="full" height="100%" version="1.1" width="100%" xmlns="http://www.w3.org/2000/svg" xmlns:ev="http://www.w3.org/2001/xml-events" xmlns:xlink="http://www.w3.org/1999/xlink"><defs><marker id="id19" markerHeight="10" markerWidth="10" refX="5" refY="5"><polygon points="0,0 0,10 5,5" /></marker><marker id="id20" markerHeight="10" markerWidth="10" refX="5" refY="5"><polygon points="0,0 10,0 5,5" /></marker><marker id="id21" markerHeight="10" markerWidth="10" refX="5" refY="5"><polygon points="0,10 10,10 5,5" /></marker></defs><g font-size="0.005em"><text x="0" y="400"><tspan fill="red" font-size="150em" size="dimension(width=200, height=100)" x="200" y="500">Specify</tspan><tspan fill="red" font-size="150em" size="dimension(width=200, height=100)" x="200" y="520">functional</tspan><tspan fill="red" font-size="150em" size="dimension(width=200, height=100)" x="200" y="540">requirements</tspan></text></g><g font-size="0.005em"><text x="500" y="400"><tspan fill="red" font-size="150em" size="dimension(width=200, height=100)" x="200" y="500">Transform</tspan><tspan fill="red" font-size="150em" size="dimension(width=200, height=100)" x="200" y="520">functional</tspan><tspan fill="red" font-size="150em" size="dimension(width=200, height=100)" x="200" y="540">requirements</tspan></text></g><g font-size="0.005em"><text x="1000" y="400"><tspan fill="red" font-size="150em" size="dimension(width=200, height=100)" x="200" y="500">Model</tspan><tspan fill="red" font-size="150em" size="dimension(width=200, height=100)" x="200" y="520">validation</tspan><tspan fill="red" font-size="150em" size="dimension(width=200, height=100)" x="200" y="540">&amp;</tspan><tspan fill="red" font-size="150em" size="dimension(width=200, height=100)" x="200" y="560">improvement</tspan></text></g><g font-size="0.005em" /><rect fill="none" height="100" rx="5" ry="5" stroke="black" width="200" x="0" y="400" /><rect fill="none" height="100" rx="5" ry="5" stroke="black" width="200" x="500" y="400" /><rect fill="none" height="100" rx="5" ry="5" stroke="black" width="200" x="1000" y="400" /><rect fill="none" height="100" rx="5" ry="5" stroke="black" width="200" x="1500" y="400" /><g font-size="0.005em"><text x="0" y="400"><tspan fill="red" font-size="150em" size="dimension(width=200, height=100)" x="200" y="500">Specify</tspan><tspan fill="red" font-size="150em" size="dimension(width=200, height=100)" x="200" y="520">functional</tspan><tspan fill="red" font-size="150em" size="dimension(width=200, height=100)" x="200" y="540">requirements</tspan></text></g><g font-size="0.005em"><text x="500" y="400"><tspan fill="red" font-size="150em" size="dimension(width=200, height=100)" x="200" y="500">Transform</tspan><tspan fill="red" font-size="150em" size="dimension(width=200, height=100)" x="200" y="520">functional</tspan><tspan fill="red" font-size="150em" size="dimension(width=200, height=100)" x="200" y="540">requirements</tspan></text></g><g font-size="0.005em"><text x="1000" y="400"><tspan fill="red" font-size="150em" size="dimension(width=200, height=100)" x="200" y="500">Model</tspan><tspan fill="red" font-size="150em" size="dimension(width=200, height=100)" x="200" y="520">validation</tspan><tspan fill="red" font-size="150em" size="dimension(width=200, height=100)" x="200" y="540">&amp;</tspan><tspan fill="red" font-size="150em" size="dimension(width=200, height=100)" x="200" y="560">improvement</tspan></text></g><text x="1500" y="400">Requirements generation</text></svg>