<?xml version="1.0" encoding="utf-8" ?>
<svg baseProfile="full" height="100%" version="1.1" width="100%" xmlns="http://www.w3.org/2000/svg" xmlns:ev="http://www.w3.org/2001/xml-events" xmlns:xlink="http://www.w3.org/1999/xlink"><defs><marker id="id22" markerHeight="10" markerWidth="10" refX="5" refY="5"><polygon points="0,0 0,10 5,5" /></marker><marker id="id23" markerHeight="10" markerWidth="10" refX="5" refY="5"><polygon points="0,0 10,0 5,5" /></marker><marker id="id24" markerHeight="10" markerWidth="10" refX="5" refY="5"><polygon points="0,10 10,10 5,5" /></marker></defs><g font-size="0.005em"><text x="0" y="400"><tspan fill="red" font-size="150em" size="dimension(width=200, height=100)" x="200" y="500">Data</tspan><tspan fill="red" font-size="150em" size="dimension(width=200, height=100)" x="200" y="520">processing</tspan><tspan fill="red" font-size="150em" size="dimension(width=200, height=100)" x="200" y="540">graph</tspan><tspan fill="red" font-size="150em" size="dimension(width=200, height=100)" x="200" y="560">generation</tspan></text></g><g font-size="0.005em"><text x="500" y="400"><tspan fill="red" font-size="150em" size="dimension(width=200, height=100)" x="200" y="500">Policy</tspan><tspan fill="red" font-size="150em" size="dimension(width=200, height=100)" x="200" y="520">compliance</tspan><tspan fill="red" font-size="150em" size="dimension(width=200, height=100)" x="200" y="540">verifier</tspan></text></g><rect fill="none" height="100" rx="5" ry="5" stroke="black" width="200" x="0" y="400" /><rect fill="none" height="100" rx="5" ry="5" stroke="black" width="200" x="500" y="400" /><g font-size="0.005em"><text x="0" y="400"><tspan fill="red" font-size="150em" size="dimension(width=200, height=100)" x="200" y="500">Data</tspan><tspan fill="red" font-size="150em" size="dimension(width=200, height=100)" x="200" y="520">processing</tspan><tspan fill="red" font-size="150em" size="dimension(width=200, height=100)" x="200" y="540">graph</tspan><tspan fill="red" font-size="150em" size="dimension(width=200, height=100)" x="200" y="560">generation</tspan></text></g><g font-size="0.005em"><text x="500" y="400"><tspan fill="red" font-size="150em" size="dimension(width=200, height=100)" x="200" y="500">Policy</tspan><tspan fill="red" font-size="150em" size="dimension(width=200, height=100)" x="200" y="520">compliance</tspan><tspan fill="red" font-size="150em" size="dimension(width=200, height=100)" x="200" y="540">verifier</tspan></text></g></svg>